<svg xmlns="http://www.w3.org/2000/svg" xmlns:xlink="http://www.w3.org/1999/xlink" xmlns:inkscape="http://www.inkscape.org/namespaces/inkscape" version="1.1" width="800" height="800" viewBox="0 0 800 800">
<defs>
<clipPath id="clip_1">
<path transform="matrix(1,0,0,-1,0,800)" d="M0 800H800V0H0Z"/>
</clipPath>
</defs>
<g inkscape:groupmode="layer" inkscape:label="Layer 1">
<g clip-path="url(#clip_1)">
<path transform="matrix(1,0,0,-1,400.3335,188.72168)" d="M0 0C116.683 0 211.273-94.59 211.273-211.273 211.273-327.957 116.683-422.547 0-422.547-116.683-422.547-211.273-327.957-211.273-211.273-211.273-94.59-116.683 0 0 0" fill="#c8b9aa"/>
<path transform="matrix(1,0,0,-1,308.731,590.4287)" d="M0 0C27.712-13.354 58.781-20.845 91.603-20.845 173.917-20.845 245.23 26.234 280.102 94.931 276.256 99.2 273.591 102.308 272.355 103.827 272.05 107.009 271.275 112.962 269.838 117.776 269.259 119.718 268.509 121.612 267.735 123.324 271.731 124.896 276.08 127.71 279.205 132.743 280.913 135.495 281.912 137.876 282.457 139.886 286.593 142.159 288.923 147.784 289.766 153.061 290.426 157.183 289.754 163.637 286.782 168.21 288.202 174.929 285.938 181.958 284.248 185.187 283.24 187.11 282.036 188.75 280.993 189.992 281.107 192.759 280.406 196.049 277.761 198.717 276.759 199.729 274.672 202.351 272.831 204.666 269.743 208.544 267.929 210.794 266.569 211.928 266.397 212.072 266.28 212.168 266.051 213.55 266.06 214.43 266.245 217.001 266.409 219.286 268.038 241.966 267.522 248.724 263.9 252.15 262.357 253.606 260.271 254.289 258.214 254.023 250.054 252.978 244.239 244.188 241.114 239.466L240.894 239.135C240.29 238.221 238.048 235.647 236.069 233.375 231.389 227.999 227.781 223.76 225.619 220.339 222.55 220.076 219.603 219.627 217.582 219.28 216.279 220.193 214.746 221.217 213.507 221.889 212.312 223.218 209.481 227.334 207.909 229.618 206.639 231.463 205.441 233.207 204.525 234.427 204.293 234.737 203.988 235.187 203.616 235.73 200.127 240.816 192.874 251.397 183.197 251.397H183.19C179.801 251.394 174.85 250.057 170.478 243.707 165.589 251.397 159.969 259.64 154.904 267.071 150.156 274.035 145.656 280.635 142.873 285.169 141.905 289.73 139.899 293.595 138.261 296.749 137.704 297.824 137.167 298.851 136.717 299.841 132.433 309.27 119.833 319.88 115.233 323.546 110.321 338.476 97.568 358.093 89.01 371.258L87.153 374.117C81.796 382.392 77.86 390.09 74.699 396.276 70.329 404.823 67.922 409.531 64.067 411.38 61.363 412.673 57.828 411.908 55.006 410.014 52.591 408.393 50.457 403.594 50.535 398.152 50.604 393.427 49.949 389.933 49.603 384.89 49.446 382.626 49.278 380.177 49.155 377.429 49.013 377.734 48.875 378.033 48.745 378.321 48.541 378.768 48.308 379.301 48.052 379.889 44.457 388.101 41.491 393.933 36.025 394.378 30.493 394.824 26.015 390.02 25.433 382.914 25.297 381.23 25.588 379.785 25.897 378.252 26.337 376.073 27.002 372.778 26.744 366.28 26.58 362.138 26.196 352.435 26.782 344.062 26.937 341.845 27.472 339.295 28.038 336.595 28.799 332.957 29.844 327.973 29.286 325.777 28.747 323.664 27.047 320.404 25.682 317.785 25.399 317.243 25.123 316.713 24.857 316.197 14.192 312.431-3.272 304.338-17.219 288.607-21.892 287.394-25.435 284.888-27.328 282.737-28.867 280.982-30.257 278.107-32.582 273.175-34.749 268.578-37.445 262.856-39.786 259.958-41.356 258.015-42.604 256.578-43.706 255.31-45.698 253.014-47.33 251.136-49.344 248.018-57.366 244.221-93.515 226.792-126.071 206.016L-126.449 205.752C-129.083 203.772-130.687 201.087-131.088 197.986-131.642 193.703-129.912 189.091-125.8 183.886-125.229 183.163-119.238 176.938-117.024 174.857-114.996 172.423-102.833 158.274-88.144 150.546-83.888 148.306-79.006 147.623-74.395 148.624-72.41 149.054-68.866 149.339-63.278 148.233-50.314 145.679-41.173 146.679-32.828 149.081-31.637 147.632-29.834 146.729-27.848 146.729H-27.5C-12.65 146.729 5.009 143.444 10.703 137.838 13.457 120.216 14.387 93.611 8.964 69.827 3.636 46.475 .76 24.064 0 0" fill="#ffffff"/>
<path transform="matrix(1,0,0,-1,585.5596,501.6807)" d="M0 0C-4.503 4.888-10.171 12.438-10.171 12.928-10.171 13.497-10.854 21.485-12.592 27.313-13.922 31.771-16.338 36.026-17.403 37.787-15.808 37.908-14.291 38.212-12.76 38.642-8.917 39.744-5.3 41.986-2.815 45.219-1.577 46.852-.606 48.542 .197 50.411 .589 51.343 .926 52.313 1.116 53.352 1.21 53.871 1.274 54.403 1.277 54.954 1.277 55.017 1.269 55.081 1.267 55.143 1.471 55.147 1.665 55.158 1.838 55.158 2.579 55.198 3.338 55.535 3.88 55.952 4.95 56.818 5.606 57.874 6.149 58.931 7.2 61.073 7.844 63.282 8.169 65.637 8.427 68.021 8.194 70.354 7.609 72.634 7.052 74.654 6.206 76.779 4.44 78.33 5.115 80.063 5.424 81.892 5.429 83.685 5.434 85.722 5.157 87.729 4.652 89.674 4.171 91.588 3.425 93.586 2.32 95.273 1.235 96.987 .013 98.542-1.546 99.955-1.638 100.039-1.745 100.096-1.857 100.132-1.853 100.153-1.852 100.176-1.847 100.198-1.567 101.487-1.368 103.917-3.182 105.748-5.768 108.357-12.129 117.049-13.954 118.571-15.779 120.092-15.773 121.7-16.15 124.1-16.526 126.5-12.041 159.332-17.274 159.324-22.925 159.315-28.794 150.906-31.166 147.329-33.547 143.737-45.985 130.379-47.294 125.802-53.379 125.65-60.527 124.163-60.527 124.163-60.527 124.163-64.781 127.32-66.46 128.083-68.139 128.847-74.218 138.427-76.955 142.078-79.693 145.728-91.406 165.959-101.293 151.508-103.286 148.596-104.714 145.695-105.758 142.883-106.534 144.032-107.338 145.266-108.193 146.67-118.198 163.1-133.368 183.918-139.478 194.134-140.414 199.793-143.556 204.46-145.395 208.515-149.887 218.418-166.574 231.147-166.574 231.147-171.03 246.514-186.177 269.203-194.482 282.048-206.044 299.931-211.224 315.313-215.097 317.172-217.004 318.087-221.06 315.343-220.704 310.263-219.868 298.315-222.626 290.463-221.217 268.43-221.219 268.397-221.222 268.362-221.224 268.329-222.973 269.998-224.941 272.149-226.489 274.424-228.906 277.977-231.692 283.479-233.314 287.059-234.936 290.639-238.384 299.418-241.047 299.636-243.71 299.854-244.973 296.128-245.176 293.655-245.378 291.183-243.423 288.201-243.862 277.269-244.054 272.497-244.386 263.448-243.849 255.706-243.49 250.522-240.143 240.961-241.532 235.521-242.564 231.477-245.918 225.986-247.498 222.542-258.082 219.108-276.534 211.135-290.667 194.406-294.898 193.771-298.089 191.624-299.48 190.041-301.952 187.232-306.905 173.507-311.797 167.46-316.691 161.412-318.531 160.13-321.881 154.618-321.881 154.618-362.77 135.734-399.559 112.292-403.99 108.963-401.42 103.504-397.82 98.939-397.472 98.498-396.788 98.8-396.848 99.358-397.211 102.738-394.202 104.67-392.265 103.068-389.355 100.661-392.621 95.423-388.759 95.169-383.572 94.829-378.411 108.124-375.1 105.011-373.461 103.331-382.141 92.666-389.088 91.08-389.448 90.998-389.612 90.593-389.379 90.307-386.879 87.225-375.26 74.099-362.097 67.163-359.119 65.595-355.706 65.077-352.416 65.788-349.7 66.375-345.361 66.698-338.866 65.413-318.446 61.37-309.13 66.736-293.624 72.57-286.809 74.729-279.109 74.873-276.267 73.521-280.47 73.521-287.453 72.475-292.375 70.38-294.527 69.428-302.593 65.663-304.742 64.851-305.207 64.675-305.096 63.996-304.599 63.997-292.491 64.028-267.698 61.575-260.404 51.694-257.157 32.298-256.411 4.142-261.997-20.27-266.518-40.025-270.199-62.971-270.946-91.438-341.043-60.276-391.034 7.895-396.065 88.284-398.712 90.948-402.2 94.595-402.629 95.138-406.741 100.343-408.471 104.955-407.917 109.238-407.516 112.339-405.912 115.024-403.278 117.004L-402.9 117.268C-400.461 118.825-398 120.359-395.534 121.874-387.345 208.215-327.203 279.41-246.705 303.856-245.02 305.147-242.998 305.807-240.803 305.63-240.738 305.625-240.678 305.609-240.613 305.603-235.903 306.879-231.13 307.999-226.295 308.951-226.296 309.104-226.292 309.248-226.294 309.404-226.372 314.846-224.237 319.645-221.822 321.266-219 323.16-215.466 323.925-212.762 322.632-209.654 321.142-207.487 317.79-204.475 312.072-198.134 312.645-191.716 312.954-185.226 312.954-68.543 312.954 26.047 218.363 26.047 101.68 26.047 64.818 16.597 30.167 0 0M89.482 217.767C74.464 253.279 52.975 285.158 25.614 312.52-1.746 339.88-33.627 361.37-69.141 376.39-105.951 391.96-145.007 399.854-185.227 399.854-225.446 399.854-264.501 391.96-301.313 376.39-336.827 361.37-368.706 339.88-396.066 312.52-423.425 285.161-444.915 253.282-459.937 217.767-475.505 180.958-483.399 141.901-483.399 101.681-483.399 61.459-475.505 22.401-459.937-14.405-444.915-49.921-423.425-81.8-396.066-109.159-368.706-136.519-336.827-158.009-301.313-173.028-264.501-188.599-225.446-196.493-185.227-196.493-145.007-196.493-105.951-188.599-69.141-173.028-33.627-158.009-1.746-136.519 25.614-109.159 52.975-81.797 74.464-49.917 89.482-14.405 105.053 22.405 112.946 61.46 112.946 101.681 112.946 141.899 105.053 180.955 89.482 217.767" fill="#10283d"/>
<path transform="matrix(1,0,0,-1,479.584,132.46442)" d="M0 0-10.694 2.93-24.009-45.681-13.313-48.609ZM-33.788-511.197-33.803-511.112C-34.23-508.499-36.48-506.919-39.728-507.451-42.932-507.977-44.44-510.128-44.011-512.742L-43.998-512.827C-43.568-515.44-41.333-516.936-38.128-516.41-34.925-515.885-33.373-513.726-33.788-511.197M-26.471-514.37C-24.902-523.939-28.342-531.213-36.73-532.589-41.031-533.295-44.175-532.338-47.002-530.68L-44.396-525.187C-41.962-526.564-40.018-527.067-37.53-526.66-33.062-525.927-32.481-521.545-32.643-518.975-33.953-520.488-35.769-521.565-38.298-521.979-44.705-523.031-49.418-520.166-50.399-514.179L-50.414-514.095C-51.388-508.151-47.512-503.012-40.85-501.921-36.888-501.271-34.409-501.86-31.809-503.729-29.355-505.491-27.439-508.467-26.484-514.285ZM-4.059-515.68-4.081-515.598C-4.705-513.376-7.173-512.65-10.052-513.459-12.932-514.268-14.658-516.174-14.034-518.395L-14.013-518.477C-13.457-520.452-11.156-521.536-8.03-520.657-4.904-519.779-3.492-517.696-4.059-515.68M-11.462-508.441C-8.953-507.737-7.765-505.804-8.332-503.789L-8.355-503.707C-8.852-501.939-10.825-500.762-13.416-501.491-16.008-502.218-17.09-504.209-16.592-505.977L-16.57-506.059C-16.003-508.075-13.972-509.146-11.462-508.441M2.162-514.288C3.665-519.634-.186-524.088-6.561-525.88-12.938-527.671-18.592-525.71-20.001-520.693L-20.024-520.611C-21.007-517.115-19.98-514.607-17.33-512.354-19.934-511.62-21.892-510.174-22.759-507.089L-22.782-507.007C-24.019-502.607-20.971-497.978-14.884-496.267-8.796-494.556-3.795-496.877-2.547-501.321L-2.523-501.403C-1.656-504.488-2.576-506.744-4.415-508.724-1.067-509.425 1.18-510.791 2.139-514.206ZM-38.877-8.855-38.859-8.713C-38.329-3.99-41.345-1.187-46.712-.583L-57.659 .65-59.277-13.731-48.117-14.988C-42.75-15.593-39.352-13.077-38.877-8.855M-42.789-41.672-51.716-24.437-60.373-23.462-62.178-39.489-73.196-38.249-67.557 11.836-44.661 9.258C-38.294 8.54-33.558 6.196-30.639 2.534-28.161-.57-27.103-4.674-27.634-9.397L-27.65-9.541C-28.56-17.625-33.496-22.214-40.131-23.858L-29.91-43.122ZM137.569-402.038 137.454-401.952C125.883-393.256 110.112-395.185 101.202-407.043 95.361-414.814 94.664-421.496 95.981-428.972L105.92-427.613C105.421-422.284 105.699-418.08 109.159-413.474 114.351-406.566 123.697-406.115 130.604-411.304L130.72-411.392C137.627-416.583 139.591-425.715 134.487-432.508 131.458-436.537 127.353-438.406 122.196-439.394L124.462-449.923C130.957-448.951 136.907-446.307 142.617-438.708 151.919-426.333 149.024-410.645 137.569-402.038M120.371-379.76 164.896-403.376 170.091-393.582 125.566-369.965ZM141.415-329.443 171.808-339.587 133.687-352.595 130.701-361.542 178.509-377.5 181.975-367.119 152.537-357.294 189.451-344.717 192.688-335.018 144.881-319.06ZM149.771-255.817 149.114-292.025 159.192-292.207 159.647-267.085 199.957-267.816 200.159-256.73ZM-61.771-504.67-70.157-507.831-68.415-513.105-63.306-511.46-61.659-534.858-55.182-534.403-57.296-504.356ZM112.588-100.046 119.686-108.75C123.099-112.935 127.286-113.515 130.579-110.83L130.69-110.739C134.373-107.736 134.179-103.623 130.766-99.438L123.803-90.899ZM104.999-106.233 92.499-116.426 85.491-107.833 124.553-75.981 139.113-93.838C143.162-98.804 144.907-103.793 144.434-108.453 144.032-112.403 141.919-116.077 138.236-119.08L138.125-119.171C131.818-124.313 125.08-124.14 119.19-120.675L113.021-141.593 104.83-131.549 110.504-112.986ZM48.225-19.128 35.193-47.292 26.791-9.211 17.513-4.917-3.653-50.66 6.28-55.255 19.734-26.177 28.432-65.505 36.992-69.466 58.157-23.725ZM6.028-489.542-1.081-495.001 2.117-499.543 6.529-496.485 14.897-518.401 20.965-516.083 10.219-487.942ZM84.881-58.213 69.524-66.933 80.057-75.201ZM97.236-50.982 82.889-104.237 73.771-97.081 77.126-85.346 60.365-72.189 49.763-78.234 40.872-71.256 89.196-44.67ZM145.833-309.268 195.612-317.134 197.344-306.183 147.564-298.317ZM-107.937-30.775-108.884-20.234-85.221-18.104-86.106-8.279-109.769-10.409-110.686-.227-83.794 2.193-84.679 12.018-122.541 8.61-118.023-41.587-79.803-38.146-80.688-28.323ZM-344.337-256.45-344.194-256.466C-334.249-257.577-330.732-251.377-327.03-241.576-323.948-233.445-322.327-231.888-319.536-232.198L-319.393-232.214C-316.458-232.542-314.975-235.46-315.477-239.968-316.116-245.692-319.004-250.151-323.228-254.243L-316.157-261.624C-310.119-256.214-306.618-248.854-305.771-241.27-304.564-230.465-309.298-222.258-319.243-221.147L-319.387-221.131C-328.116-220.157-332.403-225.475-336.186-235.339-339.37-243.749-340.683-245.774-343.974-245.407L-344.118-245.391C-346.549-245.12-348.234-242.687-347.762-238.465-347.291-234.243-344.944-230.086-341.373-225.995L-349.032-219.344C-353.677-223.969-356.663-229.937-357.477-237.236-358.62-247.466-353.424-255.435-344.337-256.45M-306.417-296.459-321.773-297.757-328.292-292.455-308.225-275.076-309.347-261.801-336.457-285.628-359.503-266.909-358.356-280.47-334.688-298.848-356.646-300.705-355.712-311.755-305.484-307.508ZM166.585-199.906 166.443-199.931C152.205-202.507 142.901-215.383 145.543-229.976 147.272-239.54 151.698-244.591 158.076-248.704L163.833-240.494C159.586-237.239 156.69-234.177 155.665-228.51 154.127-220.009 160.147-212.848 168.647-211.31L168.79-211.285C177.29-209.747 185.322-214.512 186.835-222.87 187.731-227.83 186.312-232.11 183.532-236.563L192.794-242.057C196.494-236.632 198.598-230.473 196.906-221.121 194.15-205.891 180.682-197.354 166.585-199.906M-277.762-153.466-304.672-136.08-264.518-132.965-259.4-125.043-301.729-97.695-307.668-106.887-281.604-123.725-320.482-126.721-326.03-135.308-283.702-162.656ZM-315.089-364.904-314.951-364.86C-301.13-360.568-293.466-346.654-297.865-332.49-300.748-323.208-305.756-318.732-312.588-315.426L-317.302-324.278C-312.691-326.993-309.443-329.677-307.735-335.178-305.173-343.429-310.275-351.271-318.527-353.834L-318.665-353.876C-326.915-356.439-335.468-352.687-337.987-344.575-339.483-339.761-338.595-335.339-336.379-330.58L-346.24-326.255C-349.253-332.091-350.591-338.462-347.772-347.539-343.182-362.32-328.771-369.154-315.089-364.904M-159.977-11.131-148.725-49.702-138.08-46.597-149.332-8.026-134.608-3.731-137.472 6.085-177.563-5.61-174.7-15.426ZM121.168-157.276 126.293-167.106 144.103-157.822 179.93-160.983 174.105-149.812 150.51-148.311 162.891-128.3 156.899-116.81 138.787-148.091ZM-324.537-199.474-324.401-199.521C-316.23-202.33-307.36-198.68-304.457-190.236-301.554-181.793-306.212-173.643-314.384-170.832L-314.519-170.785C-322.691-167.975-331.561-171.625-334.464-180.07-337.368-188.514-332.708-196.664-324.537-199.474M-344.087-176.609C-339.029-161.9-324.436-155.117-310.886-159.775L-310.75-159.822C-297.2-164.481-289.776-178.989-294.834-193.696-299.891-208.405-314.484-215.19-328.034-210.53L-328.17-210.483C-341.721-205.824-349.144-191.316-344.087-176.609M-135.155-507.172C-134.852-505.751-133.315-504.901-130.851-505.428-128.386-505.954-126.07-507.584-123.865-509.934L-119.487-505.803C-121.945-502.789-125.293-500.674-129.553-499.765-135.527-498.488-140.537-501.086-141.67-506.392L-141.688-506.475C-142.929-512.281-139.476-514.722-133.908-517.485-129.288-519.782-128.465-520.833-128.812-522.461L-128.831-522.544C-129.197-524.257-131.006-524.961-133.639-524.401-136.98-523.686-139.442-521.718-141.61-518.984L-146.384-522.725C-143.545-526.607-139.406-529.107-134.978-530.053-128.67-531.403-123.546-529.089-122.305-523.285L-122.288-523.201C-121.199-518.105-124.085-515.26-129.687-512.446-134.463-510.072-135.584-509.178-135.172-507.256ZM-151.101-513.251-149.242-507.702-162.612-503.223-160.684-497.469-145.492-502.56-143.632-497.009-165.023-489.843-174.524-518.202-152.931-525.436-151.072-519.886-166.466-514.728-164.471-508.774ZM-93.643-535.066-86.727-535.344-86.453-528.514-93.369-528.236ZM-91.541-505.529-116.192-502.995-116.813-509.03-107.761-509.96-110.2-533.677-103.655-534.351-101.214-510.634-92.162-511.566ZM-293.708-396.253-300.281-384.584-311.236-398.442ZM-265.573-403.214-320.403-409.308-325.422-400.399-291.795-356.665-286.105-366.764-293.693-376.329-283.233-394.898-271.122-393.365ZM-263.392-410.498C-267.654-410.15-272.175-411.722-276.73-415.589L-301.869-436.933-294.506-445.605-269.752-424.587C-265.306-420.813-261.708-421.159-259.006-424.341-256.722-427.031-256.331-430.382-256.882-434.629L-246.435-434.92C-245.542-429.629-246.263-423.441-251.343-417.458-254.885-413.287-259.028-410.855-263.392-410.498M-170.868-46.465-195.161-59.051-200.028-49.654-178.933-38.725-183.47-29.966-204.566-40.896-209.269-31.818-185.296-19.397-189.834-10.639-223.587-28.126-200.403-72.876-166.331-55.223ZM-236.538-35.755-220.122-87.93-227.695-94.137-275.63-67.793-266.163-60.035-233.472-79.137-245.783-43.332Z" fill="#ffffff"/>
<path transform="matrix(1,0,0,-1,295.5928,331.0596)" d="M0 0C.732-2.338 4.216-.429 4.243-1.804 4.259-4.747 2.792-6.285 1.319-7.041 .881-7.311 1.162-7.455 1.447-7.478 2.457-7.57 3.463-7.555 4.285-7.318 7.816-6.303 9.784-4.995 11.371-3.754 10.063-2.005 8.929 .154 7.751 1.301 5.785 3.118 3.982 4.266 1.616 4.094 .419 4.007-.425 1.356 0 0" fill="#ffffff"/>
<path transform="matrix(1,0,0,-1,282.7183,343.4209)" d="M0 0C-.253 0-.529 .25-.576 .454-.595 .53-.58 .561-.513 .596 3.792 2.761 4.613 6.549 5.273 9.592 5.669 11.414 6.016 13.012 7 13.917 6.69 13.006 6.541 12.063 6.56 11.102 6.584 9.608 6.618 8.75 6.639 8.213 6.671 7.378 6.672 7.348 6.587 6.939 6.472 6.388 6.207 6.028 5.972 5.711 5.821 5.508 5.685 5.317 5.587 5.111 5.342 4.589 5.291 4.125 5.443 3.801 5.537 3.601 5.703 3.463 5.919 3.406 5.999 3.385 6.092 3.375 6.208 3.375 6.374 3.375 6.59 3.397 6.857 3.423 7.361 3.476 7.939 3.538 8.641 3.538 9.412 3.538 10.16 3.464 10.926 3.315 11.681 3.164 12.485 2.881 13.131 2.653 13.78 2.426 14.339 2.228 14.801 2.152 15.313 2.067 15.844 2.024 16.378 2.024 19.17 2.024 22.072 3.174 24.618 5.278 23.583 3.319 21.681 1.871 19.414 1.34 18.645 1.16 17.657 1.058 16.704 1.058 15.517 1.058 14.476 1.217 13.771 1.506 13.468 1.613 10.808 2.524 8.326 2.524 7.485 2.524 6.738 2.421 6.107 2.216 4.421 1.676 3.316 1.223 2.427 .86 1.597 .519 .94 .25 .095 .015ZM77.42 75.546C76.833 74.867 63.047 58.856 61.73 55.595 60.81 53.319 59.64 46.759 58.699 41.489L58.67 41.32C58.283 39.152 57.948 37.279 57.708 36.163 56.896 32.383 57.095 23.342 57.561 22.115 59.351 17.399 62.442 13.844 64.752 13.844 65.571 13.844 66.255 14.253 66.787 15.06 67.525 16.188 67.781 19.179 68.054 22.345 68.316 25.418 68.673 29.606 69.579 29.811H69.59C70.364 29.811 70.74 28.254 71.042 27.001 71.395 25.541 71.698 24.28 72.532 24.28 72.845 24.28 73.165 24.473 73.51 24.873 74.229 25.704 74.038 28.053 73.853 30.325 73.709 32.071 73.55 34.027 73.925 34.436 73.945 34.438 73.967 34.441 73.992 34.441 74.191 34.441 74.539 34.277 75.248 33.469 75.564 33.105 75.828 32.937 76.077 32.937 76.235 32.937 76.378 33.006 76.482 33.132 77.057 33.828 76.512 36.936 75.618 41.599 75.439 42.529 75.267 43.428 75.125 44.228 73.969 50.741 75.341 58.66 76.551 65.647 77.164 69.183 77.733 72.483 77.946 75.327L78.013 76.233ZM121.766-40.894C121.145-40.894 120.908-41.824 120.333-44.074 118.359-51.781 113.117-72.253 83.854-94.114 80.171-96.864 79.954-97.808 80.111-98.276 80.184-98.5 80.408-98.767 81.056-98.767 83.814-98.767 95.064-93.311 102.501-84.707 104.77-82.085 105.713-81.534 106.106-81.534 106.175-81.534 106.216-81.554 106.255-81.604 106.378-81.756 106.607-82.368 106.08-84.771 105.423-87.754 105.763-88.175 105.907-88.354 106.014-88.488 106.163-88.56 106.327-88.56 107.761-88.56 111.103-81.52 112.2-76.928 113.251-72.511 114.056-72.46 114.089-72.46 114.149-72.46 114.211-72.522 114.253-72.575 114.612-73.028 114.747-74.256 114.535-75.147 114.101-76.996 114.353-77.32 114.461-77.458 114.558-77.579 114.693-77.646 114.842-77.646 115.037-77.646 115.244-77.532 115.472-77.301 116.782-75.967 120.01-68.979 119.856-60.391 119.849-59.909 119.935-59.562 120.105-59.388 120.224-59.268 120.395-59.21 120.643-59.21 121.142-59.21 121.833-59.453 122.499-59.689 123.242-59.95 123.987-60.211 124.607-60.211 125.234-60.211 125.683-59.933 125.905-59.403 126.751-57.403 125.739-48.464 123.212-42.842 122.542-41.348 122.205-40.894 121.766-40.894M60.743-259.785C51.823-257.294 42.993-254.181 34.49-250.532 36.064-222.554 41.495-199.588 46.286-179.321L46.434-178.702C50.846-160.037 50.95-147.571 51.06-134.373 51.079-132.191 51.097-130.059 51.132-127.887 52.827-109.059 61.756-103.167 68.931-98.433 70.931-97.114 72.817-95.869 74.275-94.478 75.675-93.139 76.27-91.838 76.044-90.609 75.64-88.427 72.756-86.983 70.622-86.089 69.12-85.515 68.438-84.507 67.572-83.229 66.212-81.224 64.521-78.729 58.985-76.395 57.911-75.94 56.966-75.712 56.177-75.712 53.307-75.712 52.793-78.621 52.704-81.255 50.832-80.239 49.144-78.976 47.547-77.397 43.291-73.287 41.273-69.703 38.733-61.638 40.38-62.998 42.069-63.952 42.86-63.952 43.226-63.952 43.37-63.759 43.422-63.643 43.545-63.372 43.531-62.936 42.491-61.749 39.353-58.167 38.383-54.81 38.742-54.013 38.754-54.003 38.776-53.994 38.807-53.994 38.953-53.994 39.316-54.177 39.952-55.156 42.224-58.652 46.874-61.315 48.334-61.315 48.795-61.315 48.967-61.084 49.027-60.946 49.219-60.499 48.841-59.795 47.84-58.729 42.857-53.418 33.768-35.626 34.885-21.957 35.027-21.311 35.188-21.164 35.238-21.164 35.304-21.164 35.678-21.252 36.501-22.98 38.297-26.745 41.218-31.291 42.151-31.291H42.205L42.328-31.255 42.464-31.141C42.624-30.913 42.706-30.557 41.999-28.827 38.987-21.494 38.681-12.948 39.675-11.465 39.724-11.416 39.762-11.391 39.798-11.391 39.841-11.391 39.883-11.421 39.942-11.486 41.206-13.16 43.135-14.651 45.176-16.232 47.161-17.767 49.206-19.351 50.909-21.289 51.59-22.061 52.091-22.405 52.535-22.405 53.398-22.405 53.549-21.261 53.71-20.048 53.82-19.208 53.969-18.07 54.379-18.07 54.58-18.07 55.072-18.261 56.125-19.528 56.884-20.442 57.628-21.385 58.327-22.27 60.507-25.033 61.679-26.473 62.395-26.473 62.561-26.473 62.708-26.402 62.813-26.275 62.99-26.055 63.126-25.613 62.782-24.013 62.694-23.594 62.769-23.495 62.769-23.495H62.777C63.059-23.495 64.399-23.814 69.211-29.099 72.211-32.392 77.153-35.738 78.517-35.738 78.877-35.738 79.018-35.543 79.071-35.427 79.219-35.099 79.138-34.499 77.421-32.543 75.809-30.708 75.904-30.221 75.939-30.142 75.977-30.062 76.154-30.012 76.415-30.012 76.843-30.012 77.489-30.139 78.333-30.39 85.247-33.567 91.261-35.172 96.697-35.288 97.611-35.309 98.421-35.319 99.132-35.319 102.779-35.319 103.501-35.058 103.608-34.542 103.756-33.836 102.48-33.243 98.427-31.472 89.656-27.637 71.42-19.664 68.06-5.235 64.554 9.809 62.3 15.141 59.442 15.141 57.875 15.141 56.26 13.578 54.218 11.597 50.625 8.115 45.703 3.347 37.54 3.346 36.957 3.346 36.359 3.371 35.739 3.422 33.431 4.808 30.294 6.873 28.828 8.722 28.22 9.513 27.548 10.56 26.837 11.667 25.649 13.516 24.439 15.398 23.244 16.6 21.312 18.431 18.914 20.391 15.763 21.075 14.726 21.286 13.689 21.391 12.681 21.391 11.291 21.391 9.891 21.189 8.514 20.788 9.089 22.948 10.963 25.537 13.982 26.657 15.034 27.048 16.014 27.239 16.975 27.239 19.545 27.239 21.574 25.866 23.922 24.278 24.979 23.565 26.046 22.843 27.239 22.188 28.219 21.649 29.077 21.376 29.786 21.376 31.206 21.376 31.749 22.481 31.846 23.134 31.84 23.251 30.74 31.425 21.779 35.136 32.653 49.044 52.102 59.205 66.713 64.083 67.772 64.436 68.294 64.781 68.404 65.202 68.867 65.275 69.185 66.167 69.667 67.519 70.425 69.646 71.572 72.863 74.294 75.592 75.945 77.247 77.439 78.457 78.757 79.523 81.665 81.88 83.766 83.581 84.312 87.508 84.814 91.084 86.109 109.535 86.161 113.832 85.068 123.092 85.664 142.841 86.767 144.078 87.075 143.859 88.018 140.06 88.644 137.544 89.767 133.02 91.159 127.409 92.96 123.687 94.216 121.094 95.53 118.531 96.81 116.032 101.369 107.137 105.674 98.736 105.04 93.056 105.426 91.194 104.106 88 102.579 84.303 100.496 79.263 98.136 73.553 99.338 69.458 99.645 67.121 101.205 65.2 102.81 65.2 103.881 65.2 104.748 66.015 105.292 67.512 105.401 66.759 105.505 65.988 105.602 65.191 106.421 58.427 104.37 56.174 101.996 53.565 100.919 52.378 99.819 51.167 98.855 49.462 98.506 49.27 97.488 48.536 96.721 47.436 95.648 45.898 95.418 44.168 96.057 42.435 97.499 39.848 97.534 35.981 96.174 30.592 95.736 28.86 94.456 26.75 93.101 24.514 90.432 20.106 87.409 15.116 88.563 10.083 90.895-.072 109.705-17.322 116.358-20.917 116.874-21.195 117.354-21.335 117.788-21.335 120.249-21.335 120.933-17.206 121.97-10.954 123.221-3.416 124.933 6.891 130.712 15.438 147 39.521 144.785 46.586 139.933 62.065L139.654 62.958C143.247 60.18 150.94 53.752 153.277 47.987 154.25 45.586 155.053 43.808 155.7 42.379 158.123 37.022 158.123 37.022 155.559 29.074 154.757 26.594 153.773 23.544 152.539 19.375 150.527 12.593 147.708 6.715 145.701 2.977 145.528 2.657 145.532 2.303 145.712 2.002 145.897 1.695 146.243 1.497 146.595 1.497 146.882 1.497 147.148 1.625 147.344 1.857 149.871 4.838 153.371 9.563 155.694 15.144 157.396 19.235 158.762 23.156 159.76 26.811 160.388 24.489 161.232 22.422 162.048 20.417 164.387 14.673 166.596 9.248 163.138-.526 162.318-2.848 160.406-5.877 157.988-9.712 152.811-17.917 144.996-30.305 139.956-48.479 136.13-62.271 132.84-79.904 129.658-96.956 126.617-113.257 123.752-128.602 120.834-138.082 119.75-141.604 118.586-143.248 117.237-145.152 116.544-146.13 115.838-147.127 115.053-148.471 111.718-154.494 99.728-163.43 91.794-169.342 88.488-171.804 85.896-173.736 84.564-174.95 81.784-177.489 81.327-178.018 81.507-178.48 81.63-178.799 82.024-178.799 82.153-178.799 82.535-178.799 83.133-178.687 83.96-178.533L84.117-178.504C84.558-178.424 85.055-178.331 85.604-178.242 86.389-178.113 87.032-178.047 87.516-178.047 88.216-178.047 88.452-178.187 88.479-178.27 88.695-178.896 85.808-181.151 84.082-182.497 83.09-183.27 82.066-184.066 81.306-184.752 76.141-189.399 75.261-190.647 75.486-191.233 75.53-191.353 75.662-191.553 76.04-191.553 76.408-191.553 76.995-191.365 77.886-190.96 78.209-190.814 79.03-190.444 79.548-190.27 79.308-190.536 78.935-190.932 78.633-191.251 77.178-192.789 75.081-195.007 73.875-197.488 73.644-197.965 73.601-198.24 73.727-198.44L73.759-198.49 73.859-198.577C73.859-198.577 74.073-198.633 74.076-198.633 74.446-198.633 74.93-198.34 75.87-197.726 76.449-197.347 77.317-196.779 77.643-196.752 77.6-196.778 77.621-196.984 77.24-197.764 76.663-198.944 74.284-202.199 71.528-205.969 66.899-212.303 61.153-220.164 60.508-222.883 60.415-223.287 60.439-223.562 60.59-223.753 60.697-223.89 60.866-223.964 61.062-223.964 61.629-223.964 62.577-223.333 63.582-222.665 64.365-222.145 65.32-221.511 65.666-221.511 65.619-221.515 65.725-221.711 65.196-222.826L64.583-224.139C63.161-227.213 62.134-229.433 57.435-235.113 56.2-236.604 55.768-237.604 56.077-238.263 56.284-238.699 56.789-238.92 57.582-238.92 59.3-238.92 62.186-237.885 63.347-237.439 63.36-237.435 63.374-237.431 63.387-237.426 63.073-238.012 61.351-239.787 60.749-240.408 60.335-240.832 59.978-241.201 59.761-241.445 58.953-242.356 57.037-245.617 57.368-246.355L57.394-246.416 57.497-246.524 57.703-246.593C58.305-246.455 58.642-246.183 59.032-245.868 59.609-245.399 60.308-244.834 61.441-244.595 60.699-245.282 59.24-246.656 58.289-248.901 58.002-249.575 57.136-253.172 57.584-253.849L57.612-253.891 57.706-253.975 57.885-254.034H57.905C58.167-254.034 58.397-253.884 58.789-253.211 59.363-252.227 59.708-251.896 59.855-251.789 59.824-251.898 59.804-252.17 59.643-252.697L59.31-253.765C58.67-255.795 58.283-257.019 59.067-257.295 59.074-257.297 59.08-257.297 59.087-257.297 59.673-257.297 59.969-256.885 60.23-256.521 60.275-256.459 60.381-256.31 60.469-256.205 60.476-256.231 60.483-256.263 60.491-256.298 60.57-257.491 60.656-258.654 60.743-259.785" fill="#c98c60"/>
<path transform="matrix(1,0,0,-1,535.2451,408.6543)" d="M0 0C-.56 .686-.94 1.352-1.132 1.984-1.427 2.954-.885 3.88 .4 4.614-.01 3.247-.158 1.539 0 0M40.069 .552C39.336 2.153 39.204 3.777 39.724 5.087 39.983 5.739 40.391 6.264 40.898 6.604 40.605 6.038 40.227 4.952 40.244 3.153 40.253 2.069 40.368 1.006 40.59-.014ZM45.163-3.269C45.942-2.25 46.561-.898 46.388 1.527 46.347 2.106 46.209 2.959 46.078 3.429L46.048 3.539 45.826 3.624C45.715 3.624 45.583 3.568 45.418 3.496 45.243 3.422 45.025 3.328 44.806 3.297 44.733 3.288 44.659 3.282 44.581 3.282 44.188 3.282 43.643 3.422 43.291 3.814 43.027 4.105 42.92 4.485 42.969 4.939 43.089 6.062 43.581 6.61 44.472 6.61 44.953 6.61 45.451 6.455 45.813 6.343 46.04 6.272 46.189 6.226 46.295 6.226L46.364 6.229C46.532 6.091 46.661 5.978 46.786 5.842 46.972 5.635 47.147 5.388 47.309 5.104 47.344 5.043 47.372 4.979 47.401 4.914L47.48 4.746C47.563 4.574 47.646 4.403 47.712 4.219 47.753 4.104 47.786 3.987 47.818 3.87 47.9 3.592 47.949 3.422 47.987 3.244 48.026 3.054 48.056 2.86 48.084 2.667 48.103 2.523 48.122 2.383 48.135 2.239 48.154 2.013 48.164 1.787 48.166 1.56L48.16 1.249C48.151 .993 48.132 .741 48.1 .498L48.066 .3C48.022 .036 47.967-.225 47.891-.469 47.771-.826 47.672-1.077 47.549-1.303 47.464-1.459 47.35-1.661 47.208-1.831 46.975-2.118 46.772-2.303 46.569-2.467L46.377-2.606C46.233-2.712 46.089-2.814 45.943-2.896L45.768-2.99C45.594-3.082 45.447-3.154 45.304-3.214 45.254-3.233 45.207-3.251 45.163-3.269M6.003-4.279C4.796-3.735 3.633-3.081 2.616-2.37 2.334-2.006 2.094-1.43 1.936-.691 1.852-.287 1.807 .059 1.777 .413L1.767 .596C1.745 .941 1.736 1.293 1.748 1.645 1.76 1.996 1.793 2.291 1.827 2.581L1.846 2.798C1.915 3.261 1.979 3.589 2.063 3.896 2.159 4.237 2.235 4.431 2.313 4.623L2.393 4.846C2.563 5.189 2.691 5.395 2.821 5.543L3.046 5.593C3.99 5.818 5.021 5.971 6.125 6.053 5.637 5.197 5.097 3.835 4.988 1.896 4.804-1.354 5.516-3.33 6.003-4.279M16.297-5.136C17.019-3.535 17.162-1.849 17.182-.957 17.186-.753 17.185-.544 17.177-.328 17.36-.687 17.521-1.019 17.662-1.307 18.014-2.026 18.187-2.376 18.34-2.501 19.186-3.193 19.415-3.919 19.268-4.332 19.195-4.532 19.034-4.648 18.826-4.648 18.63-4.648 18.407-4.552 18.182-4.368L18.099-4.3 18.006-4.356C18.003-4.359 17.549-4.646 16.845-5.001ZM12.43-5.902C12.154-5.902 11.865-5.883 11.569-5.854 12.283-5.203 13.263-3.782 13.54-.778 13.603-.102 13.617 .3 13.599 .87 13.6 .981 13.572 1.067 13.514 1.128L13.47 1.173 13.297 1.208C13.2 1.208 13.087 1.179 12.945 1.14 12.738 1.085 12.483 1.015 12.184 1.015 11.073 1.015 10.168 1.92 10.168 3.032 10.168 4.144 11.073 5.048 12.184 5.048 12.245 5.048 12.31 5.034 12.374 5.021 12.955 4.714 13.534 4.312 14.188 3.766 14.804 3.104 15.257 1.67 15.359 .038 15.374-.22 15.38-.439 15.38-.661 15.374-.98 15.371-1.175 15.357-1.371 15.357-1.371 15.307-1.936 15.287-2.083L15.169-2.789C15.169-2.789 15.021-3.389 14.996-3.469 14.996-3.469 14.801-4.046 14.769-4.125 14.735-4.21 14.563-4.572 14.563-4.572L14.487-4.734C14.44-4.822 14.388-4.907 14.334-4.991L14.146-5.297C14.083-5.385 14.013-5.469 13.942-5.551L13.836-5.684C13.402-5.851 12.934-5.902 12.43-5.902M53.243-13.017C52.938-12.696 52.512-12.462 51.972-12.315 51.615-11.991 51.12-11.612 50.534-11.164 50.121-10.848 49.663-10.497 49.159-10.098 47.1-8.464 45.366-6.929 43.868-5.41L43.922-5.405C44.199-5.39 46.689-5.185 48.521-3.084 48.661-2.923 48.785-2.745 48.901-2.558 48.973-2.445 49.039-2.326 49.104-2.203L49.107-2.208 49.219-2.036C49.406-1.638 49.538-1.286 49.632-.931L49.663-.768C50.226 1.69 49.459 3.748 48.548 5.364 48.591 5.32 48.635 5.274 48.679 5.228L48.954 4.872C49.136 4.641 49.265 4.478 49.38 4.293 49.418 4.236 49.561 3.976 49.561 3.976L49.675 3.766C49.775 3.581 49.877 3.398 49.962 3.203 50.056 2.998 50.136 2.786 50.214 2.573 51.018 .407 51.07-1.819 50.353-3.237L50.3-3.342 50.388-3.418C51.064-4.007 51.506-4.295 51.896-4.55 52.409-4.887 52.813-5.153 53.546-5.988 53.606-6.523 53.677-7.134 53.721-7.745 53.768-8.467 53.779-9.044 53.762-9.617 53.738-10.26 53.68-10.811 53.599-11.354L53.54-11.695C53.452-12.189 53.354-12.624 53.243-13.017M51.515-35.855C51.087-35.589 50.563-34.514 50.144-33.649 49.974-33.298 49.816-32.976 49.681-32.744 49.361-32.2 49.042-31.808 48.785-31.493 48.533-31.184 48.336-30.94 48.219-30.67 48.146-30.501 48.308-29.94 48.466-29.399 48.683-28.657 48.952-27.732 48.934-26.918 48.932-26.807 48.813-25.931 48.506-25.655L49.194-24.852C49.953-23.979 51.099-22.66 51.556-21.359 51.835-20.558 51.813-19.522 51.793-18.608 51.781-17.973 51.764-17.105 51.916-16.865 52.115-16.553 52.23-16.547 52.485-16.532 52.79-16.517 53.129-16.458 53.388-16.163 54.809-17.388 55.562-19.411 55.944-20.911 56.478-23.057 56.65-25.213 56.442-27.149 56.164-29.243 55.525-31.385 54.644-33.176 54.14-34.186 53.555-34.977 52.956-35.461 52.61-35.706 52.342-35.814 52.01-35.842 51.899-35.856 51.803-35.862 51.712-35.862ZM-57.845-187.968C-61.27-173.795-65.933-154.482-66.844-145.233-68.456-128.873-64.556-124.335-60.039-119.08-57.065-115.62-53.695-111.699-51.449-103.837-46.771-87.474-42.779-70.465-49.655-58.128-52.321-53.347-49.758-45.515-47.698-39.22-46.397-35.247-45.275-31.816-45.517-29.654-46.448-21.315-39.03-16.813-32.395-15.491-31.337-15.28-30.335-15.169-29.494-15.169-29.367-15.169-29.245-15.172-29.127-15.176-27.625-15.243-26.221-15.275-24.897-15.275-13.14-15.275-7.86-12.653 .888-8.312L3.103-7.215 2.897-7.058C-2.005-4.099-3.557 .156-3.798 1.336-3.552 1.21-3.152 .991-2.748 .709-2.183-.702-1.034-2.106 .617-3.404 1.046-3.738 1.415-4.011 1.805-4.271L1.936-4.353C2.398-4.648 2.738-4.863 3.09-5.064L3.89-5.487C4.077-5.589 4.265-5.689 4.458-5.782 4.928-6.011 5.402-6.223 5.885-6.418 8.659-7.649 10.836-7.909 12.173-7.909 12.173-7.909 12.384-7.91 12.404-7.91 13.156-7.91 13.777-7.839 14.334-7.701L15.917-7.306C16.069-7.285 16.131-7.277 16.195-7.263 16.938-7.093 17.514-7.014 18.008-7.014 18.762-7.014 19.355-7.192 20.186-7.523 20.847-7.787 21.381-8.313 21.948-8.868 22.815-9.721 23.713-10.603 25.192-10.71 25.276-10.716 25.356-10.719 25.436-10.719 26.07-10.719 26.54-10.522 26.835-10.134 27.214-9.633 27.267-8.839 26.985-7.834 26.606-6.48 24.283-4.168 22.037-1.933 21.478-1.374 20.929-.826 20.423-.31 19.812 .32 19.294 1.346 18.694 2.534 17.287 5.327 15.533 8.803 11.253 9.896 10.965 9.971 10.685 10.028 10.411 10.075 10.889 10.155 11.621 10.236 12.645 10.236 13.652 10.236 14.777 10.158 15.987 10.007 16.062 10 16.139 9.977 16.215 9.953L16.572 9.864 16.555 10.07C16.494 10.743 16.412 11.405 16.33 12.058 15.978 14.878 15.644 17.54 17.381 20.042 17.46 20.027 17.551 20.021 17.651 20.021 17.909 20.021 18.233 20.059 18.582 20.102 19.327 20.189 20.171 20.289 21.152 20.289 24.459 20.289 29.879 19.268 38.73 10.431L38.774 10.387 38.959 10.338C39.173 10.338 39.532 10.472 40.028 10.656 40.772 10.933 41.792 11.311 42.632 11.311 42.823 11.311 42.998 11.291 43.154 11.251 43.083 11.22 43.01 11.188 42.938 11.153 42.731 11.053 42.529 10.942 42.333 10.809 41.647 10.34 39.928 8.796 39.052 7.354 38.634 6.903 38.291 6.357 38.051 5.754 37.654 4.752 37.538 3.593 37.707 2.37 36.196 4.535 34.326 7.295 34.277 7.372 34.239 7.421 34.001 7.71 33.712 7.71H33.674L33.515 7.661C33.404 7.603 33.331 7.512 33.301 7.397 33.23 7.135 33.409 6.833 33.43 6.8L33.585 6.521C35.328 3.393 36.647 1.202 37.509 .01 39.533-2.797 42.849-6.99 48.248-10.982 48.702-11.317 49.42-11.729 50.133-12.123 50.047-12.122 49.957-12.122 49.865-12.122 49.288-12.122 48.615-12.146 47.876-12.205 45.061-12.434 42.515-14.161 41.188-15.568 40.731-16.054 40.614-16.669 40.868-17.255 41.199-18.015 42.117-18.588 43.004-18.588 43.749-18.583 44.335-18.192 44.621-17.514 44.949-16.731 45.65-16.672 45.858-16.672 46.414-16.717 46.755-16.939 46.818-17.22 47.024-18.146 46.581-18.447 46.019-18.828 45.653-19.074 45.251-19.345 45.207-19.834 45.163-20.325 45.532-20.686 45.653-20.803 45.972-21.111 46.061-21.422 46.209-21.935 46.427-22.695 46.728-23.735 47.976-25.233L48.264-25.578C48.082-25.613 47.991-25.837 47.959-25.916 47.554-28.142 46.382-29.276 45.176-30.176 42.442-32.211 36.989-34.934 31.477-36.105 30.41-36.333 29.294-36.447 28.159-36.447 24.438-36.447 20.974-35.229 18.189-34.247L17.735-34.087C16.496-33.652 15.274-33.433 14.103-33.433 12.497-33.433 11.089-33.863 10.238-34.613 10.137-34.704 9.979-34.897 10.037-35.051L10.074-35.149 10.256-35.174 10.388-35.13C10.922-34.89 11.827-34.603 13.11-34.603 14.407-34.603 15.814-34.896 17.294-35.473 17.87-35.698 18.436-35.933 19.002-36.169 21.82-37.339 24.734-38.551 29.042-38.551 29.718-38.551 30.43-38.52 31.181-38.457 35.768-38.07 41.275-35.065 42.333-34.467L42.632-34.297C43.681-33.696 45.266-32.788 46.497-32.788 46.872-32.788 47.193-32.876 47.448-33.047 48.137-33.512 49.045-35.507 49.459-37.078L49.535-37.496C49.558-37.676 49.566-37.871 49.569-38.07 49.567-38.442 49.526-38.848 49.444-39.308 49.306-40.071 49.048-40.897 48.655-41.836 47.955-43.493 46.982-45.178 45.916-46.582 43.81-49.332 40.643-51.428 36.996-52.487 35.115-53.03 33.258-53.323 31.625-53.337 29.845-53.278 27.98-52.821 26.229-52.335 23.309-51.498 20.358-50.429 17.505-49.395 17.505-49.395 14.332-48.255 13.816-48.067 12.548-47.607 11.237-47.132 9.843-46.731 8.064-46.233 6.146-45.898 3.976-45.705 1.736-45.506-.511-45.472-2.684-45.437-4.302-45.412-5.975-45.386-7.601-45.292-11.269-45.129-15.007-44.492-18.715-43.397-21.985-42.354-25.732-40.951-28.685-38.492-28.825-38.375-28.948-38.331-29.074-38.331-29.206-38.331-29.333-38.379-29.433-38.466-29.655-38.662-29.678-39.005-29.481-39.228-27.993-40.921-26.157-42.063-24.725-42.869-23.112-43.786-21.334-44.558-19.292-45.226-15.794-46.406-11.898-47.109-7.714-47.317-6.027-47.419-4.327-47.448-2.681-47.478-.545-47.516 1.663-47.555 3.791-47.751 5.82-47.935 7.616-48.251 9.28-48.72 10.532-49.078 11.853-49.561 13.13-50.024 13.644-50.214 16.74-51.334 16.74-51.334 19.626-52.388 22.61-53.478 25.658-54.357 26.372-54.556 27.094-54.74 27.822-54.908L28.007-54.949C28.774-55.122 29.499-55.248 30.216-55.333 31.165-65.229 26.938-75.744 25.749-78.028 25.23-79.025 22.708-85.274 20.724-95.521 19.318-102.779 18.53-109.66 17.769-116.313 16.859-124.266 15.917-132.488 13.916-141.131-6.692-161.596-30.848-177.378-57.845-187.968" fill="#ffffff"/>
<path transform="matrix(1,0,0,-1,541.6025,413.251)" d="M0 0C-.555 .881-1.418 2.955-1.219 6.483-1.099 8.628-.444 10.043 .044 10.817-1.203 10.74-2.335 10.576-3.328 10.342H-3.33C-3.341 10.338-3.346 10.336-3.356 10.333-3.527 10.279-3.647 10.239-3.647 10.239-3.803 10.064-3.939 9.835-4.063 9.577-4.076 9.553-4.09 9.531-4.102 9.507-4.133 9.438-4.154 9.349-4.184 9.275-4.263 9.078-4.341 8.882-4.404 8.657-4.417 8.614-4.43 8.575-4.44 8.532-4.523 8.219-4.591 7.886-4.643 7.538-4.648 7.497-4.654 7.457-4.66 7.415-4.67 7.344-4.671 7.268-4.68 7.195-4.714 6.9-4.747 6.604-4.758 6.302-4.759 6.282-4.759 6.265-4.76 6.246-4.771 5.89-4.763 5.534-4.74 5.183-4.736 5.121-4.733 5.059-4.729 4.997-4.699 4.637-4.653 4.285-4.586 3.952-4.58 3.926-4.574 3.9-4.568 3.874-4.416 3.163-4.175 2.539-3.828 2.104-2.668 1.293-1.351 .574 0 0M34.983 11.604V11.604H34.982C33.16 10.874 32.145 8.193 33.603 5.047L33.895 4.729 34.51 4.056C34.269 4.993 34.049 6.234 34.035 7.752 34.011 10.582 34.983 11.604 34.983 11.604M36.461 9.552C36.309 8.131 37.628 7.628 38.469 7.745 39.028 7.823 39.515 8.248 39.577 7.986 39.71 7.5 39.842 6.657 39.881 6.113 40.08 3.315 39.208 2 38.361 1.021 38.521 1.067 38.691 1.121 38.874 1.192 38.918 1.209 38.959 1.226 39.004 1.244 39.152 1.306 39.302 1.379 39.457 1.461 39.526 1.496 39.592 1.529 39.661 1.569 39.81 1.655 39.959 1.761 40.108 1.869 40.175 1.917 40.241 1.959 40.307 2.012 40.518 2.182 40.725 2.373 40.919 2.597 40.922 2.6 40.924 2.604 40.926 2.607H40.927C40.942 2.625 40.951 2.649 40.966 2.668 41.102 2.833 41.217 3.023 41.323 3.222 41.45 3.455 41.553 3.714 41.642 3.983 41.653 4.018 41.667 4.049 41.678 4.084 41.754 4.335 41.811 4.601 41.856 4.872 41.868 4.939 41.88 5.006 41.89 5.074 41.924 5.323 41.943 5.579 41.952 5.838 41.956 5.944 41.958 6.05 41.957 6.157 41.956 6.388 41.947 6.618 41.927 6.85 41.914 6.995 41.895 7.14 41.874 7.284 41.848 7.482 41.817 7.679 41.776 7.872 41.738 8.053 41.688 8.226 41.637 8.399 41.592 8.556 41.551 8.715 41.496 8.865 41.421 9.07 41.329 9.261 41.236 9.45 41.185 9.557 41.141 9.673 41.083 9.773 40.922 10.056 40.743 10.315 40.541 10.538 40.368 10.728 40.187 10.871 40.005 11.021 40.033 10.633 36.806 12.759 36.461 9.552M7.928 8.479C8.594 7.76 9.049 6.287 9.151 4.644 9.152 4.63 9.151 4.616 9.152 4.603 9.165 4.383 9.173 4.16 9.173 3.936 9.173 3.894 9.17 3.852 9.169 3.81 9.167 3.612 9.162 3.414 9.149 3.216 9.145 3.144 9.135 3.073 9.129 3.001 9.114 2.831 9.101 2.662 9.079 2.493 9.066 2.399 9.047 2.309 9.032 2.216 9.009 2.069 8.987 1.923 8.957 1.778 8.935 1.673 8.904 1.57 8.879 1.465 8.848 1.337 8.819 1.208 8.782 1.083 8.748 .97 8.706 .861 8.668 .751 8.629 .639 8.595 .524 8.552 .416 8.504 .298 8.446 .187 8.394 .073 8.35-.021 8.311-.118 8.263-.209 8.199-.329 8.124-.439 8.054-.554 8.006-.63 7.963-.711 7.913-.785 7.834-.896 7.744-.997 7.658-1.102 7.604-1.167 7.556-1.238 7.498-1.3 7.069-1.402 6.592-1.454 6.071-1.454 5.684-1.454 5.268-1.418 4.843-1.366 5.551-.854 6.727 .488 7.034 3.832 7.096 4.498 7.108 4.899 7.092 5.462 7.099 5.897 6.604 5.462 5.826 5.462 4.63 5.462 3.66 6.432 3.66 7.628 3.66 8.824 4.63 9.794 5.826 9.794 5.909 9.794 5.994 9.774 6.08 9.759 6.76 9.394 7.362 8.95 7.928 8.479" fill="#678fc0"/>
<path transform="matrix(1,0,0,-1,579.8701,401.8926)" d="M0 0C-.997 0-1.807-.81-1.807-1.807-1.807-2.805-.997-3.613 0-3.613 .998-3.613 1.807-2.805 1.807-1.807 1.807-.81 .998 0 0 0M-29.749-4.17C-29.749-5.366-31.245-5.897-32.441-5.897-33.638-5.897-34.607-4.928-34.607-3.73-34.607-2.534-33.638-1.564-32.441-1.564-31.245-1.564-29.749-2.974-29.749-4.17" fill="#ffffff"/>
<path transform="matrix(1,0,0,-1,566.6104,382.5757)" d="M0 0C.823-.391 .185 3.515 .189 5.081 .194 6.646 .699 13.429 1.194 21.055 1.714 29.048 1.937 34.477 1.216 36.823 .648 38.674-3.576 35.203-5.346 33.101-7.008 31.125-12.332 22.75-16.551 15.537-20.77 8.325-19.707 6.087-17.473 5.577-11.104 4.123-4.204 1.995 0 0M-74.714-23.302C-75.983-21.855-81.789-12.144-83.415-5.761-84.856-.103-87.641 10.854-84.375 20.788-81.109 30.722-77.477 32.779-74.714 33.171-69.809 33.866-60.697 22.965-53.621 8.677-49.444 .242-50.627-6.564-55.254-10.783-58.327-13.585-64.1-15.921-67.249-19.072-69.316-21.141-72.672-25.628-74.714-23.302" fill="#e8c0a6"/>
</g>
</g>
</svg>
